<svg width="32" height="32" viewBox="0 0 32 32" fill="none" xmlns="http://www.w3.org/2000/svg">
<path d="M0 16C0 7.16344 7.16344 0 16 0C24.8366 0 32 7.16344 32 16C32 24.8366 24.8366 32 16 32C7.16344 32 0 24.8366 0 16Z" fill="url(#paint0_linear_5313_4188)"/>
<mask id="mask0_5313_4188" style="mask-type:alpha" maskUnits="userSpaceOnUse" x="0" y="0" width="32" height="32">
<path fill-rule="evenodd" clip-rule="evenodd" d="M0 16C0 7.16344 7.16344 0 16 0C24.8366 0 32 7.16344 32 16C32 24.8366 24.8366 32 16 32C7.16344 32 0 24.8366 0 16Z" fill="white"/>
</mask>
<g mask="url(#mask0_5313_4188)">
<path fill-rule="evenodd" clip-rule="evenodd" d="M16.0009 7.46667C13.6834 7.46667 13.3925 7.47681 12.4823 7.51823C11.5739 7.55983 10.9538 7.70366 10.4112 7.91468C9.84993 8.13264 9.37384 8.4242 8.89952 8.89869C8.42485 9.37301 8.13329 9.8491 7.91462 10.4102C7.70307 10.9529 7.55906 11.5732 7.51818 12.4813C7.47746 13.3915 7.4668 13.6826 7.4668 16.0001C7.4668 18.3176 7.47711 18.6076 7.51835 19.5178C7.56013 20.4263 7.70395 21.0464 7.9148 21.589C8.13294 22.1502 8.4245 22.6263 8.89899 23.1006C9.37313 23.5753 9.84922 23.8676 10.4101 24.0855C10.9531 24.2965 11.5733 24.4404 12.4816 24.482C13.3918 24.5234 13.6825 24.5335 15.9999 24.5335C18.3176 24.5335 18.6075 24.5234 19.5178 24.482C20.4262 24.4404 21.047 24.2965 21.59 24.0855C22.151 23.8676 22.6264 23.5753 23.1006 23.1006C23.5752 22.6263 23.8668 22.1502 24.0855 21.5891C24.2952 21.0464 24.4392 20.4261 24.4819 19.518C24.5228 18.6078 24.5335 18.3176 24.5335 16.0001C24.5335 13.6826 24.5228 13.3917 24.4819 12.4815C24.4392 11.573 24.2952 10.9529 24.0855 10.4103C23.8668 9.8491 23.5752 9.37301 23.1006 8.89869C22.6259 8.42402 22.1512 8.13246 21.5894 7.91468C21.0454 7.70366 20.425 7.55983 19.5165 7.51823C18.6063 7.47681 18.3165 7.46667 15.9983 7.46667H16.0009ZM15.7164 9.00439H15.7166L16.001 9.00448C18.2794 9.00448 18.5494 9.01265 19.4492 9.05354C20.2812 9.09159 20.7328 9.23061 21.0336 9.34741C21.4318 9.50208 21.7157 9.68697 22.0142 9.98564C22.3129 10.2843 22.4978 10.5688 22.6528 10.967C22.7696 11.2674 22.9088 11.719 22.9466 12.551C22.9875 13.4506 22.9964 13.7208 22.9964 15.9981C22.9964 18.2755 22.9875 18.5457 22.9466 19.4453C22.9086 20.2773 22.7696 20.7289 22.6528 21.0293C22.4981 21.4275 22.3129 21.7111 22.0142 22.0096C21.7155 22.3083 21.432 22.4931 21.0336 22.6478C20.7331 22.7652 20.2812 22.9038 19.4492 22.9419C18.5496 22.9828 18.2794 22.9916 16.001 22.9916C13.7224 22.9916 13.4523 22.9828 12.5528 22.9419C11.7208 22.9035 11.2692 22.7644 10.9682 22.6476C10.57 22.493 10.2855 22.3081 9.98687 22.0094C9.6882 21.7107 9.50331 21.427 9.34829 21.0286C9.23148 20.7282 9.09228 20.2766 9.05442 19.4446C9.01353 18.545 9.00535 18.2748 9.00535 15.996C9.00535 13.7172 9.01353 13.4484 9.05442 12.5489C9.09246 11.7169 9.23148 11.2653 9.34829 10.9645C9.50295 10.5663 9.6882 10.2818 9.98687 9.98315C10.2855 9.68448 10.57 9.49959 10.9682 9.34457C11.269 9.22723 11.7208 9.08857 12.5528 9.05034C13.34 9.01479 13.645 9.00412 15.2355 9.00234V9.00448C15.3841 9.00424 15.5439 9.00432 15.7164 9.00439ZM19.532 11.4451C19.532 10.8795 19.9907 10.4214 20.556 10.4214V10.4211C21.1214 10.4211 21.5801 10.8797 21.5801 11.4451C21.5801 12.0104 21.1214 12.4691 20.556 12.4691C19.9907 12.4691 19.532 12.0104 19.532 11.4451ZM16.0007 11.6178C13.5806 11.6179 11.6186 13.58 11.6186 16.0001C11.6186 18.4202 13.5807 20.3814 16.0009 20.3814C18.421 20.3814 20.3824 18.4202 20.3824 16.0001C20.3824 13.58 18.4208 11.6178 16.0007 11.6178ZM18.8453 16.0001C18.8453 14.429 17.5717 13.1556 16.0009 13.1556C14.4298 13.1556 13.1564 14.429 13.1564 16.0001C13.1564 17.5709 14.4298 18.8446 16.0009 18.8446C17.5717 18.8446 18.8453 17.5709 18.8453 16.0001Z" fill="white"/>
</g>
<defs>
<linearGradient id="paint0_linear_5313_4188" x1="28.3333" y1="5" x2="4.66667" y2="28.3333" gradientUnits="userSpaceOnUse">
<stop stop-color="#AB50AA"/>
<stop offset="0.484889" stop-color="#D22E1F"/>
<stop offset="1" stop-color="#F4E54F"/>
</linearGradient>
</defs>
</svg>
