<svg width="32" height="32" viewBox="0 0 32 32" fill="none" xmlns="http://www.w3.org/2000/svg">
<path d="M0 16C0 7.16344 7.16344 0 16 0C24.8366 0 32 7.16344 32 16C32 24.8366 24.8366 32 16 32C7.16344 32 0 24.8366 0 16Z" fill="#F68634"/>
<path d="M17.7308 19.6269L20.1219 21.9352C20.6118 22.4071 20.6118 23.1734 20.1219 23.6457C19.6326 24.1181 18.8395 24.1181 18.3507 23.6457L15.9998 21.3774L13.6509 23.6457C13.406 23.8817 13.085 23.9998 12.7641 23.9998C12.4437 23.9998 12.1233 23.8817 11.8783 23.6457C11.389 23.1734 11.389 22.4076 11.8778 21.9352L14.2692 19.6269C13.3985 19.4354 12.5588 19.1024 11.7854 18.634C11.2001 18.2778 11.0243 17.5315 11.3931 16.966C11.7609 16.3998 12.5343 16.2293 13.1206 16.5855C14.8716 17.6488 17.1274 17.649 18.8794 16.5855C19.4658 16.2293 20.2389 16.3998 20.6074 16.966C20.9762 17.531 20.7999 18.2778 20.2146 18.634C19.4412 19.1029 18.6015 19.4354 17.7308 19.6269Z" fill="white"/>
<path fill-rule="evenodd" clip-rule="evenodd" d="M11.7119 12.1291C11.7119 14.4053 13.6303 16.2569 15.9892 16.2569C18.3486 16.2569 20.2665 14.4053 20.2665 12.1291C20.2665 9.85207 18.3486 8 15.9892 8C13.6303 8 11.7119 9.85207 11.7119 12.1291ZM17.7602 12.1291C17.7602 11.1864 16.9659 10.4198 15.9892 10.4198C15.0134 10.4198 14.2182 11.1864 14.2182 12.1291C14.2182 13.071 15.0134 13.8381 15.9892 13.8381C16.9659 13.8381 17.7602 13.071 17.7602 12.1291Z" fill="white"/>
</svg>
