<svg width="32" height="32" viewBox="0 0 32 32" fill="none" xmlns="http://www.w3.org/2000/svg">
<path fill-rule="evenodd" clip-rule="evenodd" d="M11.0882 0H20.9118C29.8772 0 32 2.12279 32 11.0882V20.9118C32 29.8772 29.8772 32 20.9118 32H11.0882C2.12279 32 0 29.8772 0 20.9118V11.0882C0 2.12279 2.12279 0 11.0882 0Z" fill="#4680C2"/>
<path fill-rule="evenodd" clip-rule="evenodd" d="M26.155 10.2141C26.313 9.71731 26.155 9.35597 25.4549 9.35597H23.1288C22.5417 9.35597 22.2707 9.67211 22.1126 10.0109C22.1126 10.0109 20.9157 12.9015 19.2446 14.7758C18.7026 15.3178 18.4542 15.4985 18.1606 15.4985C18.0025 15.4985 17.7993 15.3178 17.7993 14.821V10.1915C17.7993 9.60437 17.6186 9.33337 17.1218 9.33337H13.4634C13.102 9.33337 12.8762 9.60437 12.8762 9.87537C12.8762 10.44 13.7118 10.5754 13.8021 12.1562V15.5888C13.8021 16.3341 13.6666 16.4696 13.373 16.4696C12.5826 16.4696 10.6631 13.5564 9.51136 10.2367C9.28549 9.58177 9.05969 9.33337 8.47256 9.33337H6.12389C5.44642 9.33337 5.3335 9.64957 5.3335 9.98831C5.3335 10.598 6.12389 13.6693 9.01449 17.7342C10.9341 20.5119 13.6666 22.0024 16.1282 22.0024C17.6186 22.0024 17.7993 21.6636 17.7993 21.0991V18.9989C17.7993 18.3214 17.9348 18.2085 18.409 18.2085C18.7478 18.2085 19.3575 18.3891 20.735 19.7215C22.3158 21.3023 22.5868 22.025 23.4676 22.025H25.7936C26.4711 22.025 26.7873 21.6862 26.6066 21.0313C26.4034 20.3764 25.6356 19.428 24.6419 18.2988C24.0999 17.6665 23.2869 16.9664 23.0385 16.6276C22.6998 16.176 22.7901 15.9954 23.0385 15.5888C23.016 15.5888 25.8614 11.5691 26.155 10.2141Z" fill="white"/>
</svg>
