<svg width="32" height="32" viewBox="0 0 32 32" fill="none" xmlns="http://www.w3.org/2000/svg">
<g clip-path="url(#clip0_5313_4184)">
<path fill-rule="evenodd" clip-rule="evenodd" d="M15.8235 0C9.22845 0.000626892 4.65863 0.0225682 2.3129 2.31323C0.0223549 4.65843 0.000408952 9.44287 0.000408952 15.8234C7.08525 15.6096 10.3251 15.4322 12.9091 12.9089C15.4323 10.3249 15.6097 7.08513 15.8235 0ZM2.31249 29.687C0.021946 27.3418 0 22.5574 0 16.1769C7.08485 16.3907 10.3247 16.5681 12.9087 19.0913C15.4319 21.6753 15.6093 24.9151 15.8231 31.9997C9.22805 31.9997 4.65822 31.9783 2.31249 29.687ZM16.1768 31.9997C16.3906 24.9151 16.5681 21.6753 19.0912 19.0913C21.6752 16.5681 24.9151 16.3907 31.9999 16.1769C31.9993 22.5574 31.9773 27.3418 29.6868 29.687C27.3411 31.9783 22.7719 31.9997 16.1768 31.9997ZM16.1768 0C16.3906 7.08513 16.5681 10.3249 19.0912 12.9089C21.6752 15.4322 24.9151 15.6096 31.9999 15.8234C31.9993 9.44287 31.9773 4.65843 29.6868 2.31323C27.3411 0.0225682 22.7719 0.000626892 16.1768 0Z" fill="#2C3036"/>
<path fill-rule="evenodd" clip-rule="evenodd" d="M31.9999 16.177V16.0002V15.824C24.9151 15.6096 21.6752 15.4328 19.0912 12.909C16.5681 10.3255 16.3906 7.08576 16.1768 0.000610352H15.9999H15.8231C15.6093 7.08576 15.4319 10.3255 12.9087 12.909C10.3247 15.4328 7.0848 15.6096 0 15.824V16.0002V16.177C7.0848 16.3913 10.3247 16.5681 12.9087 19.0914C15.4319 21.6754 15.6093 24.9152 15.8231 32.0003H15.9999H16.1768C16.3906 24.9152 16.5681 21.6754 19.0912 19.0914C21.6752 16.5681 24.9151 16.3913 31.9999 16.177Z" fill="white"/>
</g>
<defs>
<clipPath id="clip0_5313_4184">
<rect width="32" height="32" fill="white"/>
</clipPath>
</defs>
</svg>
