<svg width="188" height="36" viewBox="0 0 188 36" fill="none" xmlns="http://www.w3.org/2000/svg">
<path d="M45.724 17.7951C46.4493 18.0104 47.0047 18.3618 47.39 18.8491C47.7753 19.3364 47.968 19.9371 47.968 20.6511C47.968 21.7051 47.5657 22.5268 46.761 23.1161C45.9677 23.7054 44.8287 24.0001 43.344 24.0001H37.479V12.1001H43.021C44.4037 12.1001 45.4803 12.3664 46.251 12.8991C47.0217 13.4318 47.407 14.1911 47.407 15.1771C47.407 15.7664 47.2597 16.2878 46.965 16.7411C46.6703 17.1831 46.2567 17.5344 45.724 17.7951ZM40.216 17.0301H42.783C43.3837 17.0301 43.837 16.9111 44.143 16.6731C44.449 16.4238 44.602 16.0611 44.602 15.5851C44.602 15.1204 44.4433 14.7634 44.126 14.5141C43.82 14.2648 43.3723 14.1401 42.783 14.1401H40.216V17.0301ZM43.242 21.9601C44.534 21.9601 45.18 21.4501 45.18 20.4301C45.18 19.4441 44.534 18.9511 43.242 18.9511H40.216V21.9601H43.242Z" fill="black"/>
<path d="M55.297 12.1001C56.351 12.1001 57.2633 12.2758 58.034 12.6271C58.816 12.9784 59.4167 13.4771 59.836 14.1231C60.2553 14.7691 60.465 15.5341 60.465 16.4181C60.465 17.2908 60.2553 18.0558 59.836 18.7131C59.4167 19.3591 58.816 19.8578 58.034 20.2091C57.2633 20.5491 56.351 20.7191 55.297 20.7191H52.9V24.0001H50.146V12.1001H55.297ZM55.144 18.4751C55.9713 18.4751 56.6003 18.2994 57.031 17.9481C57.4617 17.5854 57.677 17.0754 57.677 16.4181C57.677 15.7494 57.4617 15.2394 57.031 14.8881C56.6003 14.5254 55.9713 14.3441 55.144 14.3441H52.9V18.4751H55.144Z" fill="black"/>
<path d="M69.7421 21.4501H64.2171L63.1631 24.0001H60.3411L65.6451 12.1001H68.3651L73.6861 24.0001H70.7961L69.7421 21.4501ZM68.8751 19.3591L66.9881 14.8031L65.1011 19.3591H68.8751Z" fill="black"/>
<path d="M84.1427 12.1001V24.0001H81.4227V19.7161C80.3913 20.0901 79.4337 20.2771 78.5497 20.2771C76.9517 20.2771 75.7277 19.8974 74.8777 19.1381C74.0277 18.3674 73.6027 17.2624 73.6027 15.8231V12.1001H76.3227V15.5171C76.3227 16.3331 76.538 16.9508 76.9687 17.3701C77.4107 17.7781 78.0453 17.9821 78.8727 17.9821C79.7793 17.9821 80.6293 17.8064 81.4227 17.4551V12.1001H84.1427Z" fill="black"/>
<path d="M87.1011 12.1001H89.8381V19.8521L95.5161 12.1001H98.1001V24.0001H95.3801V16.2651L89.7021 24.0001H87.1011V12.1001Z" fill="black"/>
<path d="M109.225 24.102C108.047 24.102 106.976 23.8414 106.012 23.32C105.06 22.7874 104.312 22.062 103.768 21.144C103.236 20.226 102.969 19.1947 102.969 18.05C102.969 16.9054 103.236 15.874 103.768 14.956C104.312 14.038 105.06 13.3184 106.012 12.797C106.976 12.2644 108.047 11.998 109.225 11.998C110.404 11.998 111.464 12.2587 112.404 12.78C113.356 13.3014 114.104 14.0267 114.648 14.956C115.192 15.874 115.464 16.9054 115.464 18.05C115.464 19.1947 115.192 20.2317 114.648 21.161C114.104 22.079 113.356 22.7987 112.404 23.32C111.464 23.8414 110.404 24.102 109.225 24.102ZM109.225 22.98C110.166 22.98 111.016 22.7704 111.775 22.351C112.535 21.9204 113.13 21.331 113.56 20.583C113.991 19.8237 114.206 18.9794 114.206 18.05C114.206 17.1207 113.991 16.282 113.56 15.534C113.13 14.7747 112.535 14.1854 111.775 13.766C111.016 13.3354 110.166 13.12 109.225 13.12C108.285 13.12 107.429 13.3354 106.658 13.766C105.899 14.1854 105.298 14.7747 104.856 15.534C104.426 16.282 104.21 17.1207 104.21 18.05C104.21 18.9794 104.426 19.8237 104.856 20.583C105.298 21.331 105.899 21.9204 106.658 22.351C107.429 22.7704 108.285 22.98 109.225 22.98Z" fill="black"/>
<path d="M128.411 12.1V24H127.17V18.509H119.724V24H118.466V12.1H119.724V17.404H127.17V12.1H128.411Z" fill="black"/>
<path d="M141.578 12.1V24H140.337V13.188H134.591L134.455 17.166C134.399 18.8094 134.263 20.1354 134.047 21.144C133.843 22.1414 133.526 22.8894 133.095 23.388C132.665 23.8754 132.092 24.119 131.378 24.119C131.072 24.119 130.755 24.0794 130.426 24L130.528 22.878C130.721 22.9234 130.908 22.946 131.089 22.946C131.588 22.946 131.99 22.7477 132.296 22.351C132.614 21.9544 132.852 21.3424 133.01 20.515C133.169 19.6764 133.277 18.5714 133.333 17.2L133.503 12.1H141.578Z" fill="black"/>
<path d="M153.209 20.821H146.579L145.151 24H143.842L149.282 12.1H150.523L155.963 24H154.637L153.209 20.821ZM152.75 19.801L149.894 13.409L147.038 19.801H152.75Z" fill="black"/>
<path d="M158.244 12.1H159.485V21.96L167.101 12.1H168.24V24H166.999V14.157L159.383 24H158.244V12.1ZM163.208 11.233C162.358 11.233 161.683 11.0404 161.185 10.655C160.697 10.2697 160.448 9.73137 160.437 9.04004H161.372C161.383 9.49337 161.553 9.85037 161.882 10.111C162.21 10.3717 162.652 10.502 163.208 10.502C163.752 10.502 164.188 10.3717 164.517 10.111C164.857 9.85037 165.032 9.49337 165.044 9.04004H165.979C165.967 9.73137 165.712 10.2697 165.214 10.655C164.715 11.0404 164.046 11.233 163.208 11.233Z" fill="black"/>
<path d="M182.2 12.1V24H180.959V18.509H173.513V24H172.255V12.1H173.513V17.404H180.959V12.1H182.2Z" fill="black"/>
<path fill-rule="evenodd" clip-rule="evenodd" d="M16.8889 19.3337H10.6667V24.667C10.6667 27.6125 13.0545 30.0003 16 30.0003C18.9455 30.0003 21.3333 27.6125 21.3333 24.667V23.7781C21.3333 21.3235 19.3435 19.3337 16.8889 19.3337ZM8 16.667V24.667C8 29.0853 11.5817 32.667 16 32.667C20.4183 32.667 24 29.0853 24 24.667V23.7781C24 19.8507 20.8162 16.667 16.8889 16.667H8Z" fill="#FF008A"/>
<path fill-rule="evenodd" clip-rule="evenodd" d="M23.3335 14.0002H8.66683C6.0895 14.0002 4.00016 16.0895 4.00016 18.6668C4.00016 21.2442 6.0895 23.3335 8.66683 23.3335H23.3335C25.9108 23.3335 28.0002 21.2442 28.0002 18.6668C28.0002 16.0895 25.9108 14.0002 23.3335 14.0002ZM8.66683 11.3335C4.61674 11.3335 1.3335 14.6167 1.3335 18.6668C1.3335 22.7169 4.61674 26.0002 8.66683 26.0002H23.3335C27.3836 26.0002 30.6668 22.7169 30.6668 18.6668C30.6668 14.6167 27.3836 11.3335 23.3335 11.3335H8.66683Z" fill="#0919A8"/>
<path fill-rule="evenodd" clip-rule="evenodd" d="M21.3333 12.2224V11.3335C21.3333 8.38798 18.9455 6.00016 16 6.00016C13.0545 6.00016 10.6667 8.38798 10.6667 11.3335V16.6668H16.8889C19.3435 16.6668 21.3333 14.677 21.3333 12.2224ZM16 3.3335C11.5817 3.3335 8 6.91522 8 11.3335V19.3335H16.8889C20.8162 19.3335 24 16.1497 24 12.2224V11.3335C24 6.91522 20.4183 3.3335 16 3.3335Z" fill="#FF008A"/>
</svg>
