<svg width="133" height="40" viewBox="0 0 133 40" fill="none" xmlns="http://www.w3.org/2000/svg">
<path d="M0 10.8C0 7.01965 0 5.12947 0.735706 3.68556C1.38285 2.41547 2.41547 1.38285 3.68556 0.735706C5.12947 0 7.01965 0 10.8 0H122.2C125.98 0 127.871 0 129.314 0.735706C130.585 1.38285 131.617 2.41547 132.264 3.68556C133 5.12947 133 7.01965 133 10.8V29.2C133 32.9804 133 34.8705 132.264 36.3144C131.617 37.5845 130.585 38.6171 129.314 39.2643C127.871 40 125.98 40 122.2 40H10.8C7.01965 40 5.12947 40 3.68556 39.2643C2.41547 38.6171 1.38285 37.5845 0.735706 36.3144C0 34.8705 0 32.9804 0 29.2V10.8Z" fill="#100F0D"/>
<path d="M45.3962 25.4117H48.8919L47.6404 22.0615C47.4682 21.5987 47.2989 21.0875 47.1319 20.5277C46.9813 21.023 46.817 21.5287 46.6394 22.0454L45.3962 25.4117ZM49.4893 27.0021H44.8068L43.6607 30.1344H41.6021L46.1874 18.4368H48.133L52.8234 30.1344H50.6599L49.4893 27.0021Z" fill="white"/>
<path d="M58.8962 28.0072C59.3026 27.4611 59.5058 26.6631 59.5058 25.6136C59.5058 24.6396 59.3375 23.9331 59.0013 23.4943C58.6647 23.0558 58.2167 22.8365 57.657 22.8365C57.2695 22.8365 56.9117 22.9282 56.5834 23.111C56.2551 23.294 55.9429 23.5388 55.6469 23.8456V28.5118C55.8461 28.6086 56.0775 28.6854 56.3413 28.7416C56.605 28.7985 56.8661 28.8267 57.1242 28.8267C57.8994 28.8267 58.4898 28.5534 58.8962 28.0072ZM53.653 23.555C53.653 22.9092 53.6314 22.1987 53.5885 21.4238H55.4613C55.5311 21.7844 55.5797 22.1532 55.6066 22.5297C56.3815 21.685 57.2695 21.2622 58.2706 21.2622C58.8519 21.2622 59.3901 21.4089 59.8853 21.7021C60.3802 21.9956 60.7799 22.4584 61.0839 23.0907C61.3882 23.7232 61.5402 24.5266 61.5402 25.5006C61.5402 26.5178 61.3666 27.387 61.0194 28.1081C60.6722 28.8294 60.1866 29.3755 59.5623 29.747C58.9381 30.1182 58.2167 30.304 57.3989 30.304C56.8066 30.304 56.2226 30.2043 55.6469 30.0054V33.6057L53.653 33.7752V23.555Z" fill="white"/>
<path d="M67.9935 28.0072C68.3999 27.4611 68.6031 26.6631 68.6031 25.6136C68.6031 24.6396 68.4349 23.9331 68.0986 23.4943C67.7621 23.0558 67.3141 22.8365 66.7543 22.8365C66.3669 22.8365 66.009 22.9282 65.6807 23.111C65.3522 23.294 65.0402 23.5388 64.7442 23.8456V28.5118C64.9434 28.6086 65.1746 28.6854 65.4386 28.7416C65.7021 28.7985 65.9631 28.8267 66.2215 28.8267C66.9964 28.8267 67.5871 28.5534 67.9935 28.0072ZM62.7501 23.555C62.7501 22.9092 62.7285 22.1987 62.6855 21.4238H64.5586C64.6285 21.7844 64.677 22.1532 64.7039 22.5297C65.4789 21.685 66.3668 21.2622 67.3679 21.2622C67.9493 21.2622 68.4871 21.4089 68.9826 21.7021C69.4775 21.9956 69.8772 22.4584 70.1815 23.0907C70.4852 23.7232 70.6375 24.5266 70.6375 25.5006C70.6375 26.5178 70.4637 27.387 70.1167 28.1081C69.7695 28.8294 69.2837 29.3755 68.6597 29.747C68.0351 30.1182 67.314 30.304 66.4959 30.304C65.9039 30.304 65.3199 30.2043 64.7442 30.0054V33.6057L62.7501 33.7752V23.555Z" fill="white"/>
<path d="M74.3005 29.5814C73.4391 29.1053 72.7773 28.4229 72.3146 27.5349C71.8514 26.6469 71.6202 25.5974 71.6202 24.3865C71.6202 23.0735 71.8866 21.9579 72.4194 21.0401C72.9522 20.1228 73.6775 19.4338 74.5949 18.9736C75.5127 18.5135 76.5418 18.2834 77.6831 18.2834C78.3557 18.2834 78.9975 18.3574 79.6085 18.5053C80.2191 18.6535 80.7882 18.8565 81.3159 19.1149L80.8071 20.6487C79.7468 20.1428 78.7351 19.8898 77.7719 19.8898C76.9591 19.8898 76.2474 20.0635 75.6367 20.4107C75.0258 20.7579 74.5506 21.2677 74.2117 21.9405C73.8725 22.6133 73.7031 23.4259 73.7031 24.3784C73.7031 25.2128 73.8335 25.9527 74.0943 26.5985C74.3557 27.2443 74.7674 27.7558 75.3298 28.1323C75.8922 28.5091 76.6013 28.6973 77.457 28.6973C77.8445 28.6973 78.2319 28.6651 78.6194 28.6006C79.0069 28.5361 79.3703 28.4419 79.7093 28.318V25.9527H77.005V24.4027H81.6469V29.3272C80.9794 29.6392 80.2783 29.879 79.5439 30.0457C78.809 30.2123 78.0786 30.2958 77.3519 30.2958C76.1786 30.2958 75.1613 30.058 74.3005 29.5814Z" fill="white"/>
<path d="M87.5381 28.5197C87.9522 28.3209 88.2914 28.0731 88.5551 27.7771V26.1625C88.0114 26.1035 87.5674 26.0738 87.2231 26.0738C86.3997 26.0738 85.8303 26.2068 85.5159 26.4735C85.2007 26.7395 85.0434 27.099 85.0434 27.551C85.0434 27.9819 85.1578 28.3006 85.3866 28.5077C85.6154 28.7149 85.9261 28.8185 86.3189 28.8185C86.717 28.8185 87.1234 28.719 87.5381 28.5197ZM88.7327 30.1344C88.6626 29.7952 88.6167 29.4107 88.5954 28.98C88.2887 29.3462 87.8893 29.6568 87.3965 29.9125C86.9045 30.1681 86.3485 30.2958 85.7295 30.2958C85.229 30.2958 84.773 30.1976 84.361 30.0011C83.9498 29.8048 83.6226 29.5088 83.3805 29.1131C83.1383 28.7176 83.017 28.2347 83.017 27.664C83.017 26.8192 83.321 26.145 83.9293 25.6417C84.5375 25.1386 85.5519 24.887 86.9727 24.887C87.5055 24.887 88.033 24.9248 88.5551 25V24.8306C88.5551 24.061 88.3909 23.5188 88.0626 23.2037C87.7343 22.8891 87.2634 22.7316 86.6501 22.7316C86.2247 22.7316 85.7701 22.7936 85.2855 22.9172C84.8013 23.0412 84.3759 23.1891 84.0101 23.3613L83.6951 21.9082C84.0503 21.7466 84.5186 21.5987 85.0999 21.4641C85.6813 21.3297 86.2946 21.2622 86.9405 21.2622C87.6941 21.2622 88.3343 21.3766 88.8618 21.6052C89.3893 21.8341 89.801 22.2271 90.097 22.7839C90.393 23.3412 90.541 24.0907 90.541 25.0323V28.4955C90.541 28.8563 90.5623 29.4028 90.6055 30.1344H88.7327Z" fill="white"/>
<path d="M92.0709 28.0435V17.7506L94.0567 17.5891V27.6883C94.0567 28.0597 94.1199 28.3219 94.2463 28.4755C94.3727 28.6286 94.5732 28.7057 94.8479 28.7057C94.9716 28.7057 95.1466 28.6761 95.3724 28.6168L95.6066 30.0457C95.418 30.1211 95.1882 30.1816 94.9167 30.2272C94.6447 30.2728 94.3876 30.2958 94.1455 30.2958C92.762 30.2958 92.0709 29.5451 92.0709 28.0435Z" fill="white"/>
<path d="M97.0356 28.0435V17.7506L99.0215 17.5891V27.6883C99.0215 28.0597 99.0847 28.3219 99.2111 28.4755C99.3378 28.6286 99.5383 28.7057 99.8127 28.7057C99.9365 28.7057 100.111 28.6761 100.338 28.6168L100.572 30.0457C100.383 30.1211 100.153 30.1816 99.8815 30.2272C99.6095 30.2728 99.3524 30.2958 99.1103 30.2958C97.7271 30.2958 97.0356 29.5451 97.0356 28.0435Z" fill="white"/>
<path d="M106.795 24.766C106.755 24.0717 106.581 23.5511 106.269 23.2037C105.957 22.8568 105.539 22.6831 105.019 22.6831C104.512 22.6831 104.091 22.8582 103.755 23.2079C103.419 23.5579 103.197 24.0771 103.096 24.766H106.795ZM108.739 26.0334H103.04C103.131 27.858 104 28.7701 105.648 28.7701C106.056 28.7701 106.475 28.7204 106.904 28.6209C107.331 28.5211 107.741 28.3881 108.133 28.2211L108.571 29.5853C107.595 30.0592 106.501 30.2958 105.285 30.2958C104.357 30.2958 103.579 30.1211 102.944 29.7712C102.307 29.4214 101.829 28.9182 101.509 28.2614C101.19 27.6051 101.03 26.8139 101.03 25.8881C101.03 24.9248 101.199 24.0959 101.539 23.4016C101.877 22.7073 102.349 22.1773 102.955 21.8113C103.56 21.4453 104.259 21.2622 105.051 21.2622C105.875 21.2622 106.56 21.4547 107.112 21.8396C107.664 22.2242 108.072 22.737 108.339 23.3773C108.605 24.0181 108.739 24.7256 108.739 25.5006V26.0334Z" fill="white"/>
<path d="M110.248 23.6115C110.248 23.1327 110.224 22.4035 110.181 21.4238H112.048C112.08 21.666 112.109 21.9553 112.141 22.2917C112.171 22.628 112.189 22.9011 112.2 23.111C112.432 22.7289 112.659 22.4073 112.883 22.1464C113.107 21.8851 113.368 21.6728 113.667 21.5084C113.965 21.3443 114.304 21.2622 114.688 21.2622C114.995 21.2622 115.256 21.2946 115.477 21.3592L115.227 23.0868C115.035 23.0277 114.819 22.998 114.581 22.998C114.115 22.998 113.704 23.1178 113.355 23.3573C113.005 23.5966 112.632 23.9909 112.232 24.5398V30.1344H110.248V23.6115Z" fill="white"/>
<path d="M116.597 33.6985C116.307 33.6475 116.067 33.5896 115.88 33.5251L116.243 32.072C116.376 32.1094 116.547 32.1459 116.752 32.1809C116.955 32.2161 117.149 32.2334 117.333 32.2334C118.216 32.2334 118.877 31.6653 119.317 30.5299L119.448 30.207L116.235 21.4238H118.373L119.989 26.332C120.251 27.1718 120.421 27.8149 120.496 28.2614C120.648 27.6318 120.824 27.0021 121.029 26.3724L122.669 21.4238H124.677L121.475 30.2475C121.173 31.0816 120.845 31.7542 120.496 32.2657C120.147 32.7768 119.733 33.1563 119.259 33.404C118.781 33.6513 118.208 33.7752 117.533 33.7752C117.2 33.7752 116.888 33.7499 116.597 33.6985Z" fill="white"/>
<path d="M41.5933 7.30113H45.1474L45.0474 8.15952H42.6349V9.82192H44.9098V10.6262H42.6349V12.4678H45.1765L45.089 13.3344H41.5933V7.30113Z" fill="white"/>
<path d="M47.5973 10.2553L45.7223 7.30113H46.9055L48.1765 9.47206L49.514 7.30113H50.6639L48.8055 10.2177L50.8181 13.3344H49.6181L48.1807 10.9595L46.7181 13.3344H45.5682L47.5973 10.2553Z" fill="white"/>
<path d="M54.1973 9.99473C54.4194 9.79366 54.5306 9.50939 54.5306 9.14272C54.5306 8.77046 54.4172 8.50272 54.1911 8.33872C53.9647 8.17472 53.6319 8.09286 53.1932 8.09286H52.6266V10.2345C52.8876 10.2761 53.0876 10.2969 53.2266 10.2969C53.6514 10.2969 53.9751 10.1963 54.1973 9.99473ZM51.5847 7.30113H53.2098C53.9735 7.30113 54.5583 7.45686 54.9639 7.76779C55.3695 8.07899 55.5722 8.52886 55.5722 9.11766C55.5722 9.51766 55.4813 9.86726 55.2994 10.1657C55.1173 10.4643 54.8639 10.6937 54.5388 10.8531C54.214 11.0131 53.8402 11.0929 53.418 11.0929C53.1876 11.0929 52.9236 11.0651 52.6266 11.0094V13.3344H51.5847V7.30113Z" fill="white"/>
<path d="M56.6015 7.30113H57.6431V12.4427H60.1389L60.0514 13.3344H56.6015V7.30113Z" fill="white"/>
<path d="M64.4223 12.299C64.714 12.1032 64.9319 11.8339 65.0764 11.4907C65.221 11.1478 65.2932 10.7553 65.2932 10.3137C65.2932 9.88032 65.2292 9.49445 65.1015 9.15525C64.9735 8.81632 64.7695 8.54645 64.489 8.34485C64.2084 8.14352 63.8474 8.04272 63.4055 8.04272C62.9834 8.04272 62.625 8.14485 62.3306 8.34912C62.0362 8.55312 61.8154 8.82698 61.6682 9.16992C61.521 9.51312 61.4474 9.89152 61.4474 10.3054C61.4474 10.7414 61.5167 11.1318 61.6556 11.476C61.7943 11.8206 62.0068 12.0928 62.2932 12.2929C62.5791 12.4928 62.9332 12.5928 63.3556 12.5928C63.7751 12.5928 64.1306 12.4947 64.4223 12.299ZM61.7223 13.0387C61.2807 12.7859 60.9431 12.431 60.7098 11.9739C60.4764 11.5171 60.3599 10.9859 60.3599 10.3803C60.3599 9.74432 60.4839 9.18805 60.7327 8.71152C60.9813 8.23525 61.3396 7.86725 61.8076 7.60725C62.2756 7.34778 62.8277 7.21765 63.4639 7.21765C64.0722 7.21765 64.5959 7.34352 65.0348 7.59472C65.4735 7.84645 65.8084 8.19978 66.0388 8.65525C66.2695 9.11098 66.3847 9.63872 66.3847 10.2387C66.3847 10.8859 66.2591 11.4486 66.0076 11.9262C65.7562 12.4038 65.3981 12.7721 64.9327 13.0302C64.4674 13.2886 63.921 13.4178 63.2932 13.4178C62.6876 13.4178 62.1639 13.2915 61.7223 13.0387Z" fill="white"/>
<path d="M69.1807 10.1553C69.4333 10.1553 69.657 10.1062 69.8514 10.0073C70.0458 9.90886 70.1973 9.76993 70.3055 9.59073C70.4141 9.41153 70.4682 9.20379 70.4682 8.96779C70.4682 8.66513 70.3722 8.44352 70.1807 8.30326C69.989 8.16299 69.7098 8.09286 69.3431 8.09286H68.589V10.1553H69.1807ZM67.5474 7.30113H69.4349C70.1237 7.30113 70.6453 7.43872 70.9994 7.71366C71.3535 7.98859 71.5306 8.38192 71.5306 8.89286C71.5306 9.21232 71.4666 9.49366 71.3389 9.73659C71.2111 9.97979 71.0527 10.1777 70.864 10.3302C70.6749 10.483 70.4807 10.5969 70.2807 10.6721L72.1349 13.3344H70.9266L69.3557 10.9427H68.589V13.3344H67.5474V7.30113Z" fill="white"/>
<path d="M72.9599 7.30113H76.5141L76.4141 8.15952H74.0015V9.82192H76.2765V10.6262H74.0015V12.4678H76.5431L76.4556 13.3344H72.9599V7.30113Z" fill="white"/>
<path d="M80.3807 7.30113H81.4223V13.3344H80.3807V7.30113Z" fill="white"/>
<path d="M84.1765 8.17206H82.3055L82.3973 7.30113H87.0933L86.9973 8.17206H85.218V13.3344H84.1765V8.17206Z" fill="white"/>
<path d="M94.3141 12.299C94.6055 12.1032 94.8237 11.8339 94.9682 11.4907C95.1125 11.1478 95.1847 10.7553 95.1847 10.3137C95.1847 9.88032 95.1207 9.49445 94.9933 9.15525C94.8653 8.81632 94.661 8.54645 94.3807 8.34485C94.0999 8.14352 93.7389 8.04272 93.2973 8.04272C92.8749 8.04272 92.5167 8.14485 92.2223 8.34912C91.9277 8.55312 91.7069 8.82698 91.5599 9.16992C91.4125 9.51312 91.3389 9.89152 91.3389 10.3054C91.3389 10.7414 91.4082 11.1318 91.5474 11.476C91.6861 11.8206 91.8986 12.0928 92.1847 12.2929C92.4709 12.4928 92.825 12.5928 93.2474 12.5928C93.6666 12.5928 94.0223 12.4947 94.3141 12.299ZM91.6141 13.0387C91.1722 12.7859 90.8349 12.431 90.6015 11.9739C90.3682 11.5171 90.2514 10.9859 90.2514 10.3803C90.2514 9.74432 90.3757 9.18805 90.6245 8.71152C90.8727 8.23525 91.2311 7.86725 91.6994 7.60725C92.1674 7.34778 92.7194 7.21765 93.3557 7.21765C93.9639 7.21765 94.4874 7.34352 94.9266 7.59472C95.3653 7.84645 95.6999 8.19978 95.9306 8.65525C96.161 9.11098 96.2765 9.63872 96.2765 10.2387C96.2765 10.8859 96.1506 11.4486 95.8994 11.9262C95.6479 12.4038 95.2895 12.7721 94.8245 13.0302C94.3591 13.2886 93.8125 13.4178 93.1847 13.4178C92.5791 13.4178 92.0557 13.2915 91.6141 13.0387Z" fill="white"/>
<path d="M97.4389 7.30113H98.6349L101.619 11.9761C101.592 11.5318 101.581 11.1219 101.581 10.747V7.30113H102.547V13.3344H101.389L98.3599 8.58433C98.3903 9.12353 98.4055 9.60113 98.4055 10.0177V13.3344H97.4389V7.30113Z" fill="white"/>
<path fill-rule="evenodd" clip-rule="evenodd" d="M26.9417 7.33342H15.8633C10.6446 7.33342 8.73584 9.24222 8.73584 14.4609V25.5395C8.73584 30.758 10.6446 32.6667 15.8633 32.6667H26.9382C32.1569 32.6667 34.0692 30.758 34.0692 25.5395V14.4609C34.0692 9.24222 32.1604 7.33342 26.9417 7.33342Z" fill="#C91C2E"/>
<path d="M19.7881 22.0255H20.8041L20.2944 20.8405L19.7881 22.0255ZM19.5379 22.6229L19.2366 23.3125H18.5504L20.0097 20.0022H20.6025L22.0558 23.3125H21.3513L21.0537 22.6229H19.5379ZM30.5787 23.3102H31.2419V20.0022H30.5787V23.3102ZM27.9395 21.8888H29.1616V21.286H27.9395V20.6078H29.7137V20.0043H27.2766V23.3122H29.7777V22.7089H27.9395V21.8888ZM25.3046 22.2797L24.5526 20.0021H24.0043L23.2523 22.2797L22.5206 20.0037H21.8054L22.9598 23.3141H23.516L24.2691 21.1396L25.0219 23.3141H25.5832L26.7347 20.0037H26.0379L25.3046 22.2797ZM17.5382 21.8979C17.5382 22.4365 17.2707 22.7242 16.7851 22.7242C16.2969 22.7242 16.0281 22.4283 16.0281 21.875V20.0041H15.356V21.8979C15.356 22.8297 15.8736 23.3639 16.776 23.3639C17.6872 23.3639 18.2099 22.8195 18.2099 21.8706V20.0021H17.5382V21.8979ZM13.7526 20.0022H14.4243V23.3143H13.7526V21.9693H12.235V23.3143H11.563V20.0022H12.235V21.3383H13.7526V20.0022Z" fill="white"/>
<path d="M21.4023 15.7852C19.0773 15.7852 17.1855 13.8934 17.1855 11.5683H17.7813C17.7813 13.565 19.4055 15.1894 21.4023 15.1894C23.3991 15.1894 25.0234 13.565 25.0234 11.5683H25.6191C25.6191 13.8934 23.7274 15.7852 21.4023 15.7852Z" fill="white"/>
<path d="M3.68556 39.2643L4.13955 38.3733L3.68556 39.2643ZM132.264 36.3144L131.373 35.8604L132.264 36.3144ZM129.314 39.2643L129.768 40.1553L129.314 39.2643ZM129.314 0.735706L129.768 -0.1553L129.314 0.735706ZM132.264 3.68556L133.155 3.23157L132.264 3.68556ZM10.8 1H122.2V-1H10.8V1ZM132 10.8V29.2H134V10.8H132ZM122.2 39H10.8V41H122.2V39ZM1 29.2V10.8H-1V29.2H1ZM10.8 39C8.89332 39 7.52346 38.9992 6.44805 38.9114C5.38431 38.8244 4.69704 38.6573 4.13955 38.3733L3.23157 40.1553C4.11799 40.607 5.09776 40.8077 6.28518 40.9047C7.46093 41.0008 8.92633 41 10.8 41V39ZM-1 29.2C-1 31.0737 -1.00078 32.5391 -0.904716 33.7148C-0.8077 34.9022 -0.606954 35.882 -0.1553 36.7684L1.62671 35.8604C1.34266 35.303 1.17555 34.6157 1.08864 33.552C1.00078 32.4765 1 31.1067 1 29.2H-1ZM4.13955 38.3733C3.05762 37.822 2.17798 36.9424 1.62671 35.8604L-0.1553 36.7684C0.587718 38.2267 1.77332 39.4123 3.23157 40.1553L4.13955 38.3733ZM132 29.2C132 31.1067 131.999 32.4765 131.911 33.552C131.824 34.6157 131.657 35.303 131.373 35.8604L133.155 36.7684C133.607 35.882 133.808 34.9022 133.905 33.7148C134.001 32.5391 134 31.0737 134 29.2H132ZM122.2 41C124.074 41 125.539 41.0008 126.715 40.9047C127.902 40.8077 128.882 40.607 129.768 40.1553L128.86 38.3733C128.303 38.6573 127.616 38.8244 126.552 38.9114C125.477 38.9992 124.107 39 122.2 39V41ZM131.373 35.8604C130.822 36.9424 129.942 37.822 128.86 38.3733L129.768 40.1553C131.227 39.4123 132.412 38.2267 133.155 36.7684L131.373 35.8604ZM122.2 1C124.107 1 125.477 1.00078 126.552 1.08864C127.616 1.17555 128.303 1.34266 128.86 1.62671L129.768 -0.1553C128.882 -0.606954 127.902 -0.8077 126.715 -0.904716C125.539 -1.00078 124.074 -1 122.2 -1V1ZM134 10.8C134 8.92632 134.001 7.46093 133.905 6.28518C133.808 5.09776 133.607 4.11799 133.155 3.23157L131.373 4.13955C131.657 4.69704 131.824 5.38431 131.911 6.44805C131.999 7.52346 132 8.89332 132 10.8H134ZM128.86 1.62671C129.942 2.17798 130.822 3.05762 131.373 4.13955L133.155 3.23157C132.412 1.77332 131.227 0.587718 129.768 -0.1553L128.86 1.62671ZM10.8 -1C8.92632 -1 7.46092 -1.00078 6.28518 -0.904716C5.09776 -0.8077 4.11799 -0.606954 3.23157 -0.1553L4.13955 1.62671C4.69704 1.34266 5.38431 1.17555 6.44805 1.08864C7.52345 1.00078 8.89332 1 10.8 1V-1ZM1 10.8C1 8.89332 1.00078 7.52345 1.08864 6.44804C1.17555 5.38431 1.34266 4.69704 1.62671 4.13955L-0.1553 3.23157C-0.606954 4.11799 -0.8077 5.09776 -0.904716 6.28518C-1.00078 7.46092 -1 8.92632 -1 10.8H1ZM3.23157 -0.1553C1.77332 0.587718 0.587718 1.77332 -0.1553 3.23157L1.62671 4.13955C2.17798 3.05762 3.05762 2.17798 4.13955 1.62671L3.23157 -0.1553Z" fill="#A6A6A6"/>
</svg>
